<?xml version="1.0" standalone="no"?>
<!DOCTYPE svg PUBLIC "-//W3C//DTD SVG 20010904//EN"
 "http://www.w3.org/TR/2001/REC-SVG-20010904/DTD/svg10.dtd">
<svg version="1.0" xmlns="http://www.w3.org/2000/svg"
 width="90.000000pt" height="90.000000pt" viewBox="0 0 90.000000 90.000000"
 preserveAspectRatio="xMidYMid meet">
<metadata>
Created by potrace 1.14, written by Peter Selinger 2001-2017
</metadata>
<g transform="translate(0.000000,90.000000) scale(0.100000,-0.100000)"
fill="#000000" stroke="none">
<path d="M384 847 c-15 -17 11 -41 36 -34 11 3 21 0 24 -7 3 -8 5 -8 5 1 1 6
10 9 23 5 14 -3 19 -1 14 6 -3 6 -1 14 5 18 18 11 -11 24 -56 23 -22 0 -45 -5
-51 -12z"/>
<path d="M500 820 c12 -7 12 -10 1 -10 -7 0 -11 -6 -8 -14 3 -8 1 -17 -6 -20
-7 -3 -6 -5 3 -5 33 2 41 -2 50 -26 5 -14 14 -25 20 -25 6 0 9 -4 6 -9 -3 -4
1 -16 8 -26 7 -10 11 -29 8 -42 l-4 -24 -16 28 c-8 15 -21 40 -29 54 -18 36
-52 44 -62 16 -11 -28 -4 -39 19 -32 16 5 36 -18 32 -37 -1 -5 2 -8 8 -8 6 0
10 -11 10 -25 0 -14 -5 -25 -11 -25 -5 0 -7 5 -4 10 3 6 -1 10 -9 10 -10 0
-13 7 -11 20 2 11 0 18 -4 16 -5 -3 -16 3 -26 14 -10 11 -21 18 -25 15 -4 -2
-20 9 -36 25 -16 16 -35 30 -42 30 -7 0 -24 -25 -39 -56 -16 -35 -29 -51 -33
-43 -10 16 -5 45 7 42 6 -1 9 9 7 22 -1 16 3 25 11 25 8 0 12 8 10 20 -3 14 2
20 13 20 18 0 48 38 37 48 -3 3 -14 6 -24 7 -20 2 -78 -89 -73 -114 2 -8 -1
-10 -9 -5 -7 4 -10 3 -6 -3 15 -24 -19 -45 -76 -47 -37 -1 -63 -7 -73 -18 -16
-16 -12 -38 7 -38 6 0 7 6 3 13 -6 9 -4 9 7 1 8 -6 44 -10 81 -10 39 1 63 -3
58 -8 -13 -13 15 -37 34 -30 12 4 15 2 11 -9 -4 -8 2 -22 11 -31 17 -17 28
-90 12 -80 -4 3 -8 12 -8 20 0 8 -7 14 -15 14 -8 0 -15 6 -15 13 0 14 -38 54
-46 50 -2 -2 -5 0 -6 5 -3 17 -32 27 -70 24 -28 -3 -36 -7 -27 -13 11 -7 10
-9 -3 -9 -11 0 -15 -5 -12 -15 4 -10 0 -13 -14 -10 -21 4 -37 -19 -26 -36 3
-5 2 -9 -3 -8 -23 4 -31 -4 -37 -36 -4 -19 -11 -35 -17 -35 -6 0 -7 5 -3 11 3
6 0 15 -7 20 -11 7 -11 9 -1 9 7 0 10 4 7 10 -7 11 12 51 29 62 6 4 12 12 12
18 1 5 2 15 3 22 0 6 4 8 8 5 3 -4 12 -2 20 4 10 9 10 15 2 25 -13 16 -39 19
-39 4 0 -5 -9 -19 -20 -30 -12 -12 -18 -25 -15 -30 4 -6 2 -10 -3 -10 -6 0
-13 -11 -16 -25 -4 -14 -11 -25 -16 -25 -6 0 -10 -21 -10 -46 0 -38 3 -45 16
-40 8 3 13 2 10 -2 -7 -12 23 -54 34 -47 4 3 11 -6 14 -20 4 -14 13 -25 21
-25 8 0 12 -6 10 -12 -3 -7 10 -21 27 -31 18 -11 30 -15 26 -11 -4 4 0 13 10
20 25 19 34 17 27 -6 -5 -16 -2 -19 14 -17 11 2 23 6 27 10 4 3 -3 5 -14 2
-15 -3 -19 0 -15 12 5 12 7 12 14 1 5 -7 9 -9 9 -4 0 5 7 3 15 -4 8 -7 12 -16
9 -21 -3 -5 -2 -8 3 -7 9 3 73 -58 73 -70 1 -4 12 -20 25 -37 24 -29 25 -29
39 -10 8 11 12 23 10 27 -3 5 0 8 5 8 6 0 11 5 11 10 0 6 12 22 28 35 15 13
23 25 17 25 -5 1 -18 3 -27 5 -10 2 -21 -2 -25 -7 -4 -7 -1 -8 8 -4 8 4 3 -2
-11 -14 -14 -12 -19 -18 -11 -14 10 5 12 3 6 -6 -6 -10 -11 -9 -21 5 -12 16
-11 22 4 39 9 10 11 16 4 12 -11 -7 -11 -4 -1 11 8 13 22 19 43 18 17 -1 35 3
39 9 6 7 7 5 4 -4 -3 -9 1 -24 9 -35 18 -25 18 -45 -2 -45 -9 0 -12 -5 -8 -12
6 -10 5 -10 -8 0 -12 10 -18 9 -28 -3 -11 -13 -10 -14 5 -9 13 5 16 4 11 -4
-4 -7 -3 -12 2 -12 5 0 15 -11 22 -25 l13 -25 17 26 c10 14 21 25 26 25 5 -1
9 2 9 7 0 18 80 99 93 94 7 -2 12 1 12 6 0 5 23 9 52 8 45 -1 54 2 64 21 6 13
13 20 17 17 3 -3 10 3 16 14 6 11 7 22 4 26 -3 3 3 6 15 6 16 0 22 6 22 21 0
11 3 18 8 16 26 -16 37 67 14 109 -6 12 -8 25 -4 29 4 5 2 5 -4 2 -7 -4 -14 4
-18 19 -4 14 -24 45 -46 68 -33 35 -46 42 -82 43 -23 1 -49 -4 -57 -10 -12
-10 -13 -9 -6 2 6 11 4 13 -9 8 -10 -4 -15 -3 -11 3 3 6 2 10 -3 10 -9 0 -24
31 -26 57 -1 6 -11 23 -24 37 -12 15 -22 30 -22 36 0 11 -40 40 -55 40 -5 0
-3 -5 5 -10z m-76 -139 c4 -5 3 -16 0 -25 -5 -12 -10 -14 -19 -6 -10 9 -16 6
-25 -9 -6 -12 -7 -21 -3 -21 4 0 3 -4 -3 -8 -6 -4 -16 -16 -22 -27 -10 -18
-11 -17 -12 13 0 58 62 119 84 83z m46 -27 c11 -12 11 -15 0 -12 -8 2 -14 -3
-15 -11 0 -8 -11 -15 -24 -16 -22 -2 -23 -1 -6 12 11 7 15 13 11 13 -5 0 -3 7
4 15 15 18 15 18 30 -1z m0 -56 c0 -6 6 -8 13 -5 10 4 14 -6 15 -36 1 -36 -1
-39 -9 -18 -5 14 -15 21 -23 18 -8 -3 -16 2 -19 14 -3 10 -11 19 -19 18 -10 0
-10 -2 0 -6 6 -2 12 -9 12 -14 0 -6 -4 -7 -10 -4 -5 3 -21 -6 -34 -20 -13 -14
-27 -22 -30 -16 -4 5 -2 12 4 16 5 3 10 15 10 26 0 21 29 36 68 36 12 0 22 -4
22 -9z m240 0 c0 -4 8 -5 18 -3 23 4 36 -4 45 -27 3 -10 13 -18 22 -18 18 0
19 -12 3 -29 -11 -10 -10 -11 5 -5 13 5 20 -1 28 -25 6 -17 15 -29 19 -26 4 3
6 -4 3 -15 -6 -21 -45 -29 -40 -7 1 6 -4 11 -12 9 -12 -3 -12 -1 -1 15 8 10
10 15 6 11 -5 -5 -14 2 -20 15 -12 24 -47 30 -53 10 -3 -7 0 -13 6 -13 6 0 11
-7 11 -16 0 -8 5 -12 10 -9 9 6 14 -8 11 -28 -1 -5 3 -6 9 -2 11 7 11 6 14
-42 2 -45 -12 -41 -31 7 -14 34 -18 38 -31 27 -13 -9 -14 -9 -8 1 4 6 3 12 -3
12 -16 0 -19 -13 -10 -39 7 -16 14 -21 26 -17 10 4 14 4 11 1 -4 -4 -3 -17 2
-29 4 -13 4 -29 0 -37 -7 -11 -10 -10 -16 5 -4 9 -18 22 -31 27 -22 8 -23 12
-12 27 11 14 11 15 -1 5 -11 -10 -17 -10 -29 0 -8 6 -4 -3 9 -22 13 -19 17
-31 9 -26 -24 16 -44 15 -56 -2 -14 -19 -15 -18 -17 18 -2 23 12 46 31 52 5 1
8 7 7 13 -1 6 5 11 12 12 8 1 21 3 29 4 8 1 22 9 31 19 15 17 15 18 -7 18 -13
-1 -39 -3 -58 -6 -26 -3 -31 -7 -20 -14 11 -6 11 -9 1 -9 -7 0 -10 -4 -7 -10
3 -6 -1 -7 -10 -4 -11 5 -18 0 -22 -15 -5 -21 -14 -26 -25 -16 -3 3 -1 24 5
46 7 28 12 37 18 27 6 -9 9 -10 9 -1 0 7 7 10 18 7 13 -5 14 -4 3 4 -12 9 -12
13 2 26 19 19 31 21 21 4 -5 -9 -2 -9 9 1 14 11 17 11 17 0 0 -10 3 -10 11 -2
6 6 18 9 25 6 8 -3 20 0 28 6 7 6 15 8 19 5 3 -3 3 2 1 13 -4 15 -16 19 -67
20 -67 1 -95 -11 -77 -33 9 -9 5 -12 -14 -10 -15 2 -27 -1 -27 -5 -1 -5 -2
-15 -3 -21 -1 -7 -7 -12 -14 -10 -7 1 -12 -4 -12 -12 0 -8 -4 -17 -8 -20 -14
-9 -6 47 13 82 9 18 21 30 25 27 5 -3 12 5 15 18 5 20 12 23 45 22 22 -1 37 2
34 7 -3 4 6 7 20 6 15 -1 26 -6 26 -10z m-466 -92 c-5 -14 32 -43 49 -38 5 1
6 -2 3 -7 -4 -5 -2 -12 4 -16 15 -9 12 -42 -5 -49 -10 -4 -15 1 -15 14 0 19
-10 24 -37 21 -16 -2 -17 11 -1 27 9 9 9 12 0 12 -7 0 -12 -4 -12 -10 0 -5 -7
-7 -15 -4 -8 4 -12 10 -9 15 3 5 -2 6 -10 3 -9 -3 -14 -10 -11 -14 3 -4 -2
-11 -11 -14 -14 -5 -14 -9 -3 -22 12 -14 14 -14 21 3 6 13 7 11 3 -8 -3 -17 0
-26 9 -26 9 0 12 10 9 31 -3 28 -2 29 11 11 8 -11 12 -24 10 -30 -2 -5 6 -15
18 -20 25 -11 32 -61 10 -70 -7 -2 -11 -1 -8 4 3 5 -1 14 -9 21 -8 7 -15 9
-15 5 0 -4 -6 -3 -13 3 -7 6 -18 7 -26 2 -8 -4 -20 -6 -28 -3 -8 3 -13 -2 -13
-16 0 -12 -6 -21 -13 -21 -23 0 -25 10 -10 41 13 26 24 34 46 30 13 -2 7 26
-8 39 -18 15 -47 6 -39 -13 3 -8 -2 -17 -10 -20 -9 -4 -16 -14 -16 -22 0 -9
-4 -14 -8 -11 -22 14 8 105 37 113 11 3 21 13 24 22 3 13 15 18 42 19 21 1 40
4 43 7 9 9 12 5 6 -9z m230 -5 c2 -3 -8 -15 -22 -25 -14 -11 -22 -15 -19 -9 4
6 0 14 -9 17 -13 5 -14 9 -5 20 11 13 47 11 55 -3z m44 -95 c0 -11 11 -29 24
-39 13 -10 16 -15 8 -11 -10 5 -9 1 3 -14 11 -12 16 -26 11 -33 -4 -8 -3 -10
4 -5 8 5 12 -2 12 -21 l0 -28 -19 29 c-11 17 -18 33 -15 37 2 4 -2 9 -9 12 -6
2 -16 6 -22 8 -5 2 -10 -8 -11 -23 -1 -15 2 -26 5 -25 3 1 7 -2 8 -7 1 -5 6
-12 11 -15 17 -10 19 -61 3 -61 -5 0 -8 11 -7 24 2 15 -1 23 -8 20 -7 -3 -22
9 -35 26 -18 25 -25 29 -37 19 -11 -9 -14 -9 -14 1 0 10 -3 10 -14 1 -11 -9
-15 -9 -19 1 -3 7 -6 1 -6 -13 -1 -15 -8 -29 -16 -33 -16 -6 -16 -5 -20 32 -2
24 10 30 18 10 3 -7 6 -1 6 13 1 23 5 25 36 24 19 0 35 3 35 8 0 5 7 4 15 -3
12 -10 18 -9 31 4 15 16 15 18 -1 36 -10 11 -22 17 -28 13 -5 -3 -29 -6 -53
-6 -27 0 -44 -4 -43 -11 3 -25 -2 -35 -20 -41 -13 -4 -18 -13 -16 -25 3 -13
-1 -17 -11 -13 -8 3 -14 2 -13 -3 4 -21 -2 -35 -11 -29 -11 7 -5 55 8 64 4 3
19 22 32 41 40 57 42 58 110 57 59 0 66 -3 68 -21z m-167 -143 c7 -42 6 -53
-7 -42 -13 11 -15 49 -2 49 4 0 9 -3 9 -7z"/>
<path d="M400 770 c8 -5 18 -6 24 -3 5 3 6 1 2 -5 -4 -6 -13 -9 -21 -6 -8 4
-13 0 -11 -10 3 -20 26 -45 26 -29 0 7 8 10 19 8 10 -2 25 5 34 15 14 17 14
19 -1 25 -26 11 -88 15 -72 5z"/>
<path d="M175 249 c-4 -6 -5 -12 -2 -15 2 -3 7 2 10 11 7 17 1 20 -8 4z"/>
</g>
</svg>
